<?xml version="1.0" standalone="no"?>
<!DOCTYPE svg PUBLIC "-//W3C//DTD SVG 20010904//EN"
 "http://www.w3.org/TR/2001/REC-SVG-20010904/DTD/svg10.dtd">
<svg version="1.0" xmlns="http://www.w3.org/2000/svg"
 width="450.000000pt" height="450.000000pt" viewBox="0 0 450.000000 450.000000"
 preserveAspectRatio="xMidYMid meet">
<metadata>
Created by potrace 1.16, written by Peter Selinger 2001-2019
</metadata>
<g transform="translate(0.000000,450.000000) scale(0.100000,-0.100000)"
fill="#000000" stroke="none">
<path d="M1 3538 c1 -530 4 -949 5 -933 19 161 29 225 50 315 99 423 290 734
599 975 146 114 238 164 684 374 266 125 407 174 616 211 99 18 92 18 -927 19
l-1028 1 1 -962z"/>
<path d="M2616 4479 c474 -88 1009 -374 1365 -729 337 -337 447 -578 512
-1125 2 -16 5 399 6 923 l1 952 -992 -1 -993 -1 101 -19z"/>
<path d="M4487 1946 c-14 -158 -70 -399 -131 -560 -127 -335 -556 -797 -1036
-1118 -228 -152 -389 -220 -597 -252 -78 -13 15 -14 845 -15 l932 -1 0 1010
c0 556 -2 1010 -4 1010 -1 0 -6 -33 -9 -74z"/>
<path d="M1 893 l-1 -893 1073 1 1072 1 -135 18 c-240 32 -461 81 -604 135
-311 117 -692 414 -1047 816 -233 264 -303 408 -343 709 -13 96 -14 24 -15
-787z"/>
</g>
</svg>
